<mxfile host="app.diagrams.net" modified="2024-03-14T14:04:27.310Z" agent="Mozilla/5.0 (Windows NT 10.0; Win64; x64) AppleWebKit/537.36 (KHTML, like Gecko) Chrome/122.0.0.0 Safari/537.36" etag="ZR6sO3D5gSlkw4zkZYu5" version="24.0.2" type="device">
  <diagram name="Страница — 1" id="zBL7nr5m40juxzCDOqML">
    <mxGraphModel dx="1290" dy="565" grid="1" gridSize="10" guides="1" tooltips="1" connect="1" arrows="1" fold="1" page="1" pageScale="1" pageWidth="827" pageHeight="1169" math="0" shadow="0">
      <root>
        <mxCell id="0" />
        <mxCell id="1" parent="0" />
        <mxCell id="2CvirR248G7r50Ye6962-1" value="" style="rounded=1;whiteSpace=wrap;html=1;" vertex="1" parent="1">
          <mxGeometry x="50" y="220" width="250" height="170" as="geometry" />
        </mxCell>
        <mxCell id="2CvirR248G7r50Ye6962-2" value="&lt;font face=&quot;Helvetica&quot; style=&quot;font-size: 11px;&quot;&gt;Подсистема осуществления автоматической выдачи позиции нахождения ближайшей свободного пункта выдачи&lt;/font&gt;" style="text;html=1;align=center;verticalAlign=middle;whiteSpace=wrap;rounded=0;" vertex="1" parent="1">
          <mxGeometry x="50" y="230" width="250" height="50" as="geometry" />
        </mxCell>
        <mxCell id="2CvirR248G7r50Ye6962-6" value="" style="rounded=1;whiteSpace=wrap;html=1;" vertex="1" parent="1">
          <mxGeometry x="370" y="220" width="250" height="170" as="geometry" />
        </mxCell>
        <mxCell id="2CvirR248G7r50Ye6962-7" value="&lt;font face=&quot;Times New Roman, serif&quot;&gt;&lt;span style=&quot;font-size: 11px;&quot;&gt;Работа с БД&lt;/span&gt;&lt;/font&gt;" style="text;html=1;align=center;verticalAlign=middle;whiteSpace=wrap;rounded=0;" vertex="1" parent="1">
          <mxGeometry x="370" y="230" width="250" height="50" as="geometry" />
        </mxCell>
        <mxCell id="2CvirR248G7r50Ye6962-8" value="" style="rounded=1;whiteSpace=wrap;html=1;" vertex="1" parent="1">
          <mxGeometry x="50" y="460" width="250" height="170" as="geometry" />
        </mxCell>
        <mxCell id="2CvirR248G7r50Ye6962-9" value="&lt;span style=&quot;font-family: &amp;quot;Times New Roman&amp;quot;, serif;&quot;&gt;&lt;font style=&quot;font-size: 11px;&quot;&gt;Подсистема о&lt;/font&gt;&lt;/span&gt;&lt;font face=&quot;Times New Roman, serif&quot;&gt;&lt;span style=&quot;font-size: 11px;&quot;&gt;бработки трафика среднего объема&lt;/span&gt;&lt;/font&gt;" style="text;html=1;align=center;verticalAlign=middle;whiteSpace=wrap;rounded=0;" vertex="1" parent="1">
          <mxGeometry x="50" y="470" width="250" height="50" as="geometry" />
        </mxCell>
        <mxCell id="2CvirR248G7r50Ye6962-10" value="" style="rounded=1;whiteSpace=wrap;html=1;" vertex="1" parent="1">
          <mxGeometry x="370" y="460" width="250" height="170" as="geometry" />
        </mxCell>
        <mxCell id="2CvirR248G7r50Ye6962-11" value="&lt;span style=&quot;font-family: &amp;quot;Times New Roman&amp;quot;, serif;&quot;&gt;&lt;font style=&quot;font-size: 11px;&quot;&gt;Подсистема и&lt;/font&gt;&lt;/span&gt;&lt;font face=&quot;Times New Roman, serif&quot;&gt;&lt;span style=&quot;font-size: 11px;&quot;&gt;нформирования о сбоях&lt;/span&gt;&lt;/font&gt;" style="text;html=1;align=center;verticalAlign=middle;whiteSpace=wrap;rounded=0;" vertex="1" parent="1">
          <mxGeometry x="370" y="470" width="250" height="50" as="geometry" />
        </mxCell>
        <mxCell id="2CvirR248G7r50Ye6962-12" value="" style="rounded=1;whiteSpace=wrap;html=1;" vertex="1" parent="1">
          <mxGeometry x="680" y="460" width="250" height="170" as="geometry" />
        </mxCell>
        <mxCell id="2CvirR248G7r50Ye6962-13" value="&lt;span style=&quot;font-family: &amp;quot;Times New Roman&amp;quot;, serif;&quot;&gt;&lt;font style=&quot;font-size: 11px;&quot;&gt;Подсистема м&lt;/font&gt;&lt;/span&gt;&lt;font face=&quot;Times New Roman, serif&quot;&gt;&lt;span style=&quot;font-size: 11px;&quot;&gt;ониторинга активности пользователей&lt;/span&gt;&lt;/font&gt;" style="text;html=1;align=center;verticalAlign=middle;whiteSpace=wrap;rounded=0;" vertex="1" parent="1">
          <mxGeometry x="680" y="470" width="250" height="50" as="geometry" />
        </mxCell>
        <mxCell id="2CvirR248G7r50Ye6962-18" value="" style="rounded=0;whiteSpace=wrap;html=1;" vertex="1" parent="1">
          <mxGeometry x="50" y="280" width="250" height="30" as="geometry" />
        </mxCell>
        <mxCell id="2CvirR248G7r50Ye6962-19" value="Запись данных об изменении состояния пункта выдачи в БД" style="text;html=1;align=center;verticalAlign=middle;whiteSpace=wrap;rounded=0;" vertex="1" parent="1">
          <mxGeometry x="60" y="280" width="240" height="30" as="geometry" />
        </mxCell>
        <mxCell id="2CvirR248G7r50Ye6962-22" value="" style="rounded=0;whiteSpace=wrap;html=1;" vertex="1" parent="1">
          <mxGeometry x="50" y="310" width="250" height="30" as="geometry" />
        </mxCell>
        <mxCell id="2CvirR248G7r50Ye6962-23" value="" style="rounded=0;whiteSpace=wrap;html=1;" vertex="1" parent="1">
          <mxGeometry x="50" y="340" width="250" height="30" as="geometry" />
        </mxCell>
        <mxCell id="2CvirR248G7r50Ye6962-24" value="Графическое отображение данных в разделе «Управление пунктами выдачи»&amp;nbsp;" style="text;html=1;align=center;verticalAlign=middle;whiteSpace=wrap;rounded=0;" vertex="1" parent="1">
          <mxGeometry x="60" y="310" width="240" height="30" as="geometry" />
        </mxCell>
        <mxCell id="2CvirR248G7r50Ye6962-25" value="Отправка позиции заказа пользователю" style="text;html=1;align=center;verticalAlign=middle;whiteSpace=wrap;rounded=0;" vertex="1" parent="1">
          <mxGeometry x="60" y="340" width="240" height="30" as="geometry" />
        </mxCell>
        <mxCell id="2CvirR248G7r50Ye6962-38" value="" style="rounded=0;whiteSpace=wrap;html=1;" vertex="1" parent="1">
          <mxGeometry x="370" y="280" width="250" height="30" as="geometry" />
        </mxCell>
        <mxCell id="2CvirR248G7r50Ye6962-39" value="Запись данных в БД" style="text;html=1;align=center;verticalAlign=middle;whiteSpace=wrap;rounded=0;" vertex="1" parent="1">
          <mxGeometry x="380" y="280" width="240" height="30" as="geometry" />
        </mxCell>
        <mxCell id="2CvirR248G7r50Ye6962-40" value="" style="rounded=0;whiteSpace=wrap;html=1;" vertex="1" parent="1">
          <mxGeometry x="370" y="310" width="250" height="30" as="geometry" />
        </mxCell>
        <mxCell id="2CvirR248G7r50Ye6962-41" value="" style="rounded=0;whiteSpace=wrap;html=1;" vertex="1" parent="1">
          <mxGeometry x="370" y="340" width="250" height="30" as="geometry" />
        </mxCell>
        <mxCell id="2CvirR248G7r50Ye6962-42" value="Графическое отображение данных" style="text;html=1;align=center;verticalAlign=middle;whiteSpace=wrap;rounded=0;" vertex="1" parent="1">
          <mxGeometry x="380" y="310" width="240" height="30" as="geometry" />
        </mxCell>
        <mxCell id="2CvirR248G7r50Ye6962-43" value="Выгрузка данных в оперативную память" style="text;html=1;align=center;verticalAlign=middle;whiteSpace=wrap;rounded=0;" vertex="1" parent="1">
          <mxGeometry x="380" y="340" width="240" height="30" as="geometry" />
        </mxCell>
        <mxCell id="2CvirR248G7r50Ye6962-44" value="" style="rounded=0;whiteSpace=wrap;html=1;" vertex="1" parent="1">
          <mxGeometry x="50" y="520" width="250" height="30" as="geometry" />
        </mxCell>
        <mxCell id="2CvirR248G7r50Ye6962-45" value="Графическое отображение данных" style="text;html=1;align=center;verticalAlign=middle;whiteSpace=wrap;rounded=0;" vertex="1" parent="1">
          <mxGeometry x="60" y="520" width="240" height="30" as="geometry" />
        </mxCell>
        <mxCell id="2CvirR248G7r50Ye6962-46" value="" style="rounded=0;whiteSpace=wrap;html=1;" vertex="1" parent="1">
          <mxGeometry x="50" y="550" width="250" height="30" as="geometry" />
        </mxCell>
        <mxCell id="2CvirR248G7r50Ye6962-48" value="Запись данных в БД" style="text;html=1;align=center;verticalAlign=middle;whiteSpace=wrap;rounded=0;" vertex="1" parent="1">
          <mxGeometry x="60" y="550" width="240" height="30" as="geometry" />
        </mxCell>
        <mxCell id="2CvirR248G7r50Ye6962-52" value="" style="rounded=0;whiteSpace=wrap;html=1;" vertex="1" parent="1">
          <mxGeometry x="370" y="550" width="250" height="30" as="geometry" />
        </mxCell>
        <mxCell id="2CvirR248G7r50Ye6962-54" value="Отправка данных о сбоях" style="text;html=1;align=center;verticalAlign=middle;whiteSpace=wrap;rounded=0;" vertex="1" parent="1">
          <mxGeometry x="380" y="550" width="240" height="30" as="geometry" />
        </mxCell>
        <mxCell id="2CvirR248G7r50Ye6962-58" value="" style="rounded=0;whiteSpace=wrap;html=1;" vertex="1" parent="1">
          <mxGeometry x="680" y="550" width="250" height="30" as="geometry" />
        </mxCell>
        <mxCell id="2CvirR248G7r50Ye6962-60" value="Загрузка данных в БД об активности пользователей в различное время дня" style="text;html=1;align=center;verticalAlign=middle;whiteSpace=wrap;rounded=0;" vertex="1" parent="1">
          <mxGeometry x="690" y="550" width="240" height="30" as="geometry" />
        </mxCell>
        <mxCell id="2CvirR248G7r50Ye6962-64" value="Администратор" style="shape=umlActor;verticalLabelPosition=bottom;verticalAlign=top;html=1;outlineConnect=0;" vertex="1" parent="1">
          <mxGeometry x="150" y="650" width="30" height="60" as="geometry" />
        </mxCell>
        <mxCell id="2CvirR248G7r50Ye6962-66" value="Курьер" style="shape=umlActor;verticalLabelPosition=bottom;verticalAlign=top;html=1;outlineConnect=0;" vertex="1" parent="1">
          <mxGeometry x="165" y="130" width="30" height="60" as="geometry" />
        </mxCell>
        <mxCell id="2CvirR248G7r50Ye6962-67" value="Пользователь" style="shape=umlActor;verticalLabelPosition=bottom;verticalAlign=top;html=1;outlineConnect=0;" vertex="1" parent="1">
          <mxGeometry x="470" y="660" width="30" height="60" as="geometry" />
        </mxCell>
        <mxCell id="2CvirR248G7r50Ye6962-68" value="" style="endArrow=classic;html=1;rounded=0;exitX=0.451;exitY=1.004;exitDx=0;exitDy=0;exitPerimeter=0;entryX=0.481;entryY=0.007;entryDx=0;entryDy=0;entryPerimeter=0;" edge="1" parent="1" source="2CvirR248G7r50Ye6962-6" target="2CvirR248G7r50Ye6962-12">
          <mxGeometry width="50" height="50" relative="1" as="geometry">
            <mxPoint x="680" y="410" as="sourcePoint" />
            <mxPoint x="730" y="360" as="targetPoint" />
            <Array as="points">
              <mxPoint x="483" y="430" />
              <mxPoint x="800" y="430" />
            </Array>
          </mxGeometry>
        </mxCell>
        <mxCell id="2CvirR248G7r50Ye6962-69" value="" style="endArrow=classic;html=1;rounded=0;exitX=0.601;exitY=-0.005;exitDx=0;exitDy=0;exitPerimeter=0;entryX=0.602;entryY=1.009;entryDx=0;entryDy=0;entryPerimeter=0;" edge="1" parent="1" source="2CvirR248G7r50Ye6962-10" target="2CvirR248G7r50Ye6962-6">
          <mxGeometry width="50" height="50" relative="1" as="geometry">
            <mxPoint x="280" y="420" as="sourcePoint" />
            <mxPoint x="330" y="370" as="targetPoint" />
          </mxGeometry>
        </mxCell>
        <mxCell id="2CvirR248G7r50Ye6962-70" value="Администратор" style="shape=umlActor;verticalLabelPosition=bottom;verticalAlign=top;html=1;outlineConnect=0;" vertex="1" parent="1">
          <mxGeometry x="480" y="130" width="30" height="60" as="geometry" />
        </mxCell>
        <mxCell id="2CvirR248G7r50Ye6962-71" value="Администратор" style="shape=umlActor;verticalLabelPosition=bottom;verticalAlign=top;html=1;outlineConnect=0;" vertex="1" parent="1">
          <mxGeometry x="797" y="650" width="30" height="60" as="geometry" />
        </mxCell>
        <mxCell id="2CvirR248G7r50Ye6962-72" value="" style="endArrow=classic;startArrow=classic;html=1;rounded=0;exitX=1;exitY=0;exitDx=0;exitDy=0;entryX=0;entryY=1;entryDx=0;entryDy=0;" edge="1" parent="1" source="2CvirR248G7r50Ye6962-24" target="2CvirR248G7r50Ye6962-38">
          <mxGeometry width="50" height="50" relative="1" as="geometry">
            <mxPoint x="340" y="280" as="sourcePoint" />
            <mxPoint x="390" y="230" as="targetPoint" />
          </mxGeometry>
        </mxCell>
        <mxCell id="2CvirR248G7r50Ye6962-73" value="" style="endArrow=classic;startArrow=classic;html=1;rounded=0;entryX=0.25;entryY=1;entryDx=0;entryDy=0;exitX=0.5;exitY=0;exitDx=0;exitDy=0;" edge="1" parent="1" source="2CvirR248G7r50Ye6962-8" target="2CvirR248G7r50Ye6962-6">
          <mxGeometry width="50" height="50" relative="1" as="geometry">
            <mxPoint x="250" y="400" as="sourcePoint" />
            <mxPoint x="300" y="350" as="targetPoint" />
            <Array as="points">
              <mxPoint x="175" y="430" />
              <mxPoint x="433" y="430" />
            </Array>
          </mxGeometry>
        </mxCell>
        <mxCell id="2CvirR248G7r50Ye6962-74" value="" style="rounded=1;whiteSpace=wrap;html=1;" vertex="1" parent="1">
          <mxGeometry x="680" y="220" width="250" height="170" as="geometry" />
        </mxCell>
        <mxCell id="2CvirR248G7r50Ye6962-75" value="&lt;span style=&quot;font-family: &amp;quot;Times New Roman&amp;quot;, serif;&quot;&gt;&lt;font style=&quot;font-size: 11px;&quot;&gt;Подсистема взаимодействия с пользователем&lt;/font&gt;&lt;/span&gt;" style="text;html=1;align=center;verticalAlign=middle;whiteSpace=wrap;rounded=0;" vertex="1" parent="1">
          <mxGeometry x="680" y="230" width="250" height="50" as="geometry" />
        </mxCell>
        <mxCell id="2CvirR248G7r50Ye6962-76" value="" style="rounded=0;whiteSpace=wrap;html=1;" vertex="1" parent="1">
          <mxGeometry x="680" y="280" width="250" height="30" as="geometry" />
        </mxCell>
        <mxCell id="2CvirR248G7r50Ye6962-77" value="Графическое отображение данных" style="text;html=1;align=center;verticalAlign=middle;whiteSpace=wrap;rounded=0;" vertex="1" parent="1">
          <mxGeometry x="690" y="280" width="240" height="30" as="geometry" />
        </mxCell>
        <mxCell id="2CvirR248G7r50Ye6962-78" value="" style="rounded=0;whiteSpace=wrap;html=1;" vertex="1" parent="1">
          <mxGeometry x="680" y="310" width="250" height="30" as="geometry" />
        </mxCell>
        <mxCell id="2CvirR248G7r50Ye6962-79" value="Запись данных в БД" style="text;html=1;align=center;verticalAlign=middle;whiteSpace=wrap;rounded=0;" vertex="1" parent="1">
          <mxGeometry x="690" y="310" width="240" height="30" as="geometry" />
        </mxCell>
        <mxCell id="2CvirR248G7r50Ye6962-80" value="Пользователь" style="shape=umlActor;verticalLabelPosition=bottom;verticalAlign=top;html=1;outlineConnect=0;" vertex="1" parent="1">
          <mxGeometry x="790" y="130" width="30" height="60" as="geometry" />
        </mxCell>
        <mxCell id="2CvirR248G7r50Ye6962-83" value="" style="endArrow=classic;html=1;rounded=0;exitX=0;exitY=0;exitDx=0;exitDy=0;entryX=1;entryY=0;entryDx=0;entryDy=0;" edge="1" parent="1" source="2CvirR248G7r50Ye6962-78" target="2CvirR248G7r50Ye6962-42">
          <mxGeometry width="50" height="50" relative="1" as="geometry">
            <mxPoint x="1040" y="390" as="sourcePoint" />
            <mxPoint x="1090" y="340" as="targetPoint" />
          </mxGeometry>
        </mxCell>
        <mxCell id="2CvirR248G7r50Ye6962-85" value="" style="endArrow=classic;html=1;rounded=0;exitX=0.454;exitY=1.008;exitDx=0;exitDy=0;exitPerimeter=0;entryX=0.5;entryY=1;entryDx=0;entryDy=0;" edge="1" parent="1" source="2CvirR248G7r50Ye6962-1" target="2CvirR248G7r50Ye6962-74">
          <mxGeometry width="50" height="50" relative="1" as="geometry">
            <mxPoint x="1030" y="410" as="sourcePoint" />
            <mxPoint x="1080" y="360" as="targetPoint" />
            <Array as="points">
              <mxPoint x="164" y="420" />
              <mxPoint x="805" y="420" />
            </Array>
          </mxGeometry>
        </mxCell>
      </root>
    </mxGraphModel>
  </diagram>
</mxfile>
